<?xml version="1.0" encoding="iso-8859-1"?>
<!-- Uploaded to: SVG Repo, www.svgrepo.com, Generator: SVG Repo Mixer Tools -->
<svg fill="#000000" height="800px" width="800px" version="1.1" id="Layer_1" xmlns="http://www.w3.org/2000/svg" xmlns:xlink="http://www.w3.org/1999/xlink" 
	 viewBox="0 0 511.668 511.668" xml:space="preserve">
<g>
	<g>
		<path d="M255.83,0C145.526,0,55.782,114.764,55.782,255.832s89.744,255.836,200.048,255.836
			c110.308,0,200.056-114.768,200.056-255.836S366.138,0,255.83,0z M255.83,503.668c-105.896,0-192.048-111.176-192.048-247.836
			C63.782,119.176,149.934,8,255.83,8c105.9,0,192.056,111.176,192.056,247.832S361.73,503.668,255.83,503.668z"/>
	</g>
</g>
<g>
	<g>
		<path d="M266.75,247.04c-31.052-38.64-60.384-75.136-60.384-149.196c0-33.908,5.948-61.948,18.716-88.248
			c0.964-1.988,0.136-4.38-1.852-5.344c-1.992-0.968-4.38-0.14-5.344,1.852c-13.316,27.428-19.52,56.58-19.52,91.74
			c0,76.876,30.188,114.44,62.152,154.216c31.852,39.64,64.788,80.636,64.788,161.72c0,30.08-4.464,56.456-13.648,80.624
			c-0.784,2.068,0.252,4.376,2.316,5.16c0.468,0.176,0.948,0.26,1.42,0.26c1.612,0,3.132-0.98,3.744-2.576
			c9.536-25.092,14.172-52.396,14.172-83.468C333.31,329.876,299.478,287.768,266.75,247.04z"/>
	</g>
</g>
<g>
	<g>
		<path d="M197.678,12.084c-2.052-0.78-4.376,0.252-5.156,2.32c-9.528,25.096-14.16,52.388-14.16,83.436c0,2.208,1.788,4,4,4
			c2.212,0,4-1.788,4-4c0-30.06,4.46-56.424,13.636-80.596C200.782,15.176,199.746,12.868,197.678,12.084z"/>
	</g>
</g>
<g>
	<g>
		<path d="M251.146,259.552c-22.844-28.428-46.464-57.824-57.776-102.024c-0.548-2.14-2.736-3.432-4.868-2.884
			c-2.14,0.548-3.432,2.728-2.884,4.868c11.74,45.88,35.916,75.964,59.304,105.072c31.052,38.64,60.38,75.132,60.38,149.192
			c0,33.916-5.956,61.976-18.736,88.3c-0.964,1.984-0.136,4.38,1.852,5.344c0.564,0.276,1.16,0.404,1.744,0.404
			c1.484,0,2.912-0.828,3.6-2.256c13.332-27.448,19.54-56.616,19.54-91.792C313.302,336.904,283.118,299.34,251.146,259.552z"/>
	</g>
</g>
</svg>